<svg xmlns="http://www.w3.org/2000/svg" width="128.126" height="128" viewBox="0 0 64.063 64">
  <metadata><?xpacket begin="﻿" id="W5M0MpCehiHzreSzNTczkc9d"?>
<x:xmpmeta xmlns:x="adobe:ns:meta/" x:xmptk="Adobe XMP Core 5.6-c140 79.160451, 2017/05/06-01:08:21        ">
   <rdf:RDF xmlns:rdf="http://www.w3.org/1999/02/22-rdf-syntax-ns#">
      <rdf:Description rdf:about=""/>
   </rdf:RDF>
</x:xmpmeta>
                                                                                                    
                                                                                                    
                                                                                                    
                                                                                                    
                                                                                                    
                                                                                                    
                                                                                                    
                                                                                                    
                                                                                                    
                                                                                                    
                                                                                                    
                                                                                                    
                                                                                                    
                                                                                                    
                                                                                                    
                                                                                                    
                                                                                                    
                                                                                                    
                                                                                                    
                                                                                                    
                           
<?xpacket end="w"?></metadata>
<defs>
    <style>
      .cls-1 {
        fill: #666;
        fill-rule: evenodd;
      }
    </style>
  </defs>
  <path id="ICO_好妈圈" data-name="ICO 好妈圈" class="cls-1" d="M517.572,332a28.117,28.117,0,0,0,6.392-.734,2,2,0,1,0-.91-3.9,24.214,24.214,0,0,1-10.849.027,2,2,0,1,0-.891,3.9A28.152,28.152,0,0,0,517.572,332Zm18.312-7.543a2,2,0,0,0,1.409-.581A27.916,27.916,0,0,0,545.572,304a2,2,0,0,0-2-2H522.634a2,2,0,0,0,0,4H541.49a23.81,23.81,0,0,1-7.015,15.037A2,2,0,0,0,535.884,324.457ZM491.634,306H512.2a2,2,0,0,0,0-4H491.634A2,2,0,0,0,491.634,306Zm7.875,18.7a2,2,0,0,0,1.39-3.438,24,24,0,0,1,14.673-41.181v18.855a2,2,0,0,0,4,0V278a2,2,0,0,0-2-2,27.992,27.992,0,0,0-19.452,48.14A1.992,1.992,0,0,0,499.509,324.7ZM531.634,340a10,10,0,1,0-10-10A10.011,10.011,0,0,0,531.634,340Zm0-16a6,6,0,1,1-6,6A6.006,6.006,0,0,1,531.634,324Zm-28,16a10,10,0,1,0-10-10A10.011,10.011,0,0,0,503.634,340Zm0-16a6,6,0,1,1-6,6A6.006,6.006,0,0,1,503.634,324Zm14-14a6,6,0,1,0-6-6A6.007,6.007,0,0,0,517.634,310Zm0-8a2,2,0,1,1-2,2A2,2,0,0,1,517.634,302Zm18,4a2,2,0,0,0,1.795-1.116L545.753,288h5.881a2,2,0,0,0,0-4h-7.125a2,2,0,0,0-1.794,1.115l-8.875,18A2,2,0,0,0,535.633,306Z" transform="translate(-489.562 -276)"/>
</svg>
