<svg xmlns="http://www.w3.org/2000/svg" xmlns:xlink="http://www.w3.org/1999/xlink" width="128.126" height="128" viewBox="0 0 64.063 64">
  <metadata><?xpacket begin="﻿" id="W5M0MpCehiHzreSzNTczkc9d"?>
<x:xmpmeta xmlns:x="adobe:ns:meta/" x:xmptk="Adobe XMP Core 5.6-c140 79.160451, 2017/05/06-01:08:21        ">
   <rdf:RDF xmlns:rdf="http://www.w3.org/1999/02/22-rdf-syntax-ns#">
      <rdf:Description rdf:about=""/>
   </rdf:RDF>
</x:xmpmeta>
                                                                                                    
                                                                                                    
                                                                                                    
                                                                                                    
                                                                                                    
                                                                                                    
                                                                                                    
                                                                                                    
                                                                                                    
                                                                                                    
                                                                                                    
                                                                                                    
                                                                                                    
                                                                                                    
                                                                                                    
                                                                                                    
                                                                                                    
                                                                                                    
                                                                                                    
                                                                                                    
                           
<?xpacket end="w"?></metadata>
<defs>
    <style>
      .cls-1 {
        filter: url(#filter);
      }

      .cls-2, .cls-3 {
        fill: #666;
        fill-rule: evenodd;
      }

      .cls-2 {
        fill-opacity: 0.4;
      }
    </style>
    <filter id="filter" filterUnits="userSpaceOnUse">
      <feFlood result="flood" flood-color="#ff4500"/>
      <feComposite result="composite" operator="in" in2="SourceGraphic"/>
      <feBlend result="blend" in2="SourceGraphic"/>
    </filter>
  </defs>
  <g id="ICO_好妈圈_当前_" data-name="ICO 好妈圈(当前)" class="cls-1">
    <path id="形状_77" data-name="形状 77" class="cls-2" d="M518,428v21.937A4,4,0,1,0,522,454h22a25.926,25.926,0,0,1-8.163,18.916,8,8,0,0,0-11.812,6.382,26.21,26.21,0,0,1-12.051,0,8,8,0,0,0-11.811-6.382A26,26,0,0,1,518,428" transform="translate(-489.562 -426)"/>
    <path id="ICO_好妈圈_拷贝_2" data-name="ICO 好妈圈 拷贝 2" class="cls-3" d="M517.572,482a28.117,28.117,0,0,0,6.392-.734,2,2,0,1,0-.91-3.9,24.219,24.219,0,0,1-10.85.027,2,2,0,1,0-.89,3.9A28.152,28.152,0,0,0,517.572,482Zm18.312-7.543a1.994,1.994,0,0,0,1.409-.581A27.916,27.916,0,0,0,545.572,454a2,2,0,0,0-2-2H522.634a2,2,0,0,0,0,4H541.49a23.809,23.809,0,0,1-7.014,15.037A2,2,0,0,0,535.884,474.457ZM491.634,456H512.2a2,2,0,0,0,0-4H491.634A2,2,0,0,0,491.634,456Zm7.875,18.7a2,2,0,0,0,1.39-3.438,24,24,0,0,1,14.673-41.181v18.855a2,2,0,0,0,4,0V428a2,2,0,0,0-2-2,27.992,27.992,0,0,0-19.452,48.14A1.992,1.992,0,0,0,499.509,474.7ZM531.634,490a10,10,0,1,0-10-10A10.011,10.011,0,0,0,531.634,490Zm0-16a6,6,0,1,1-6,6A6.006,6.006,0,0,1,531.634,474Zm-28,16a10,10,0,1,0-10-10A10.011,10.011,0,0,0,503.634,490Zm0-16a6,6,0,1,1-6,6A6.006,6.006,0,0,1,503.634,474Zm14-14a6,6,0,1,0-6-6A6.007,6.007,0,0,0,517.634,460Zm0-8a2,2,0,1,1-2,2A2,2,0,0,1,517.634,452Zm18,4a2,2,0,0,0,1.795-1.116L545.753,438h5.881a2,2,0,0,0,0-4h-7.125a2,2,0,0,0-1.794,1.115l-8.875,18A2,2,0,0,0,535.633,456Z" transform="translate(-489.562 -426)"/>
  </g>
</svg>
